<svg width="46" height="46" viewBox="0 0 46 46" fill="none" xmlns="http://www.w3.org/2000/svg">
<g clip-path="url(#clip0_29_20)">
<path d="M44.8231 13.8782C44.7518 11.5978 44.3243 9.95882 43.8255 8.46234C43.3266 6.96586 42.5428 5.75443 41.3313 4.54299C40.1199 3.33156 38.9085 2.61895 37.4832 2.04886C36.058 1.47878 34.4903 1.12247 32.0674 1.05121C29.5733 0.908691 28.8607 0.908691 22.8035 0.908691C16.7463 0.908691 16.105 0.908691 13.6821 0.979952C11.2593 1.05121 9.76277 1.47878 8.2663 1.9776C6.76982 2.47643 5.55838 3.33156 4.34695 4.54299C3.13551 5.75443 2.35165 6.96586 1.85282 8.46234C1.28273 9.88756 0.926429 11.4553 0.855168 13.8782C0.783907 16.301 0.712646 16.9424 0.712646 22.9995C0.712646 29.0567 0.712647 29.6981 0.783907 32.1209C0.855168 34.5438 1.28273 36.0403 1.78156 37.5368C2.28038 39.0332 3.06425 40.2447 4.27569 41.4561C5.48712 42.6675 6.76982 43.4514 8.19503 43.9502C9.62025 44.4491 11.188 44.8766 13.6109 44.9479C16.0337 45.0904 16.6751 45.0904 22.7322 45.0904C28.7894 45.0904 29.4308 45.0904 31.8536 45.0191C34.2765 44.9479 35.773 44.5203 37.2695 44.0215C38.7659 43.5227 39.9774 42.7388 41.1888 41.5274C42.4002 40.3159 43.1841 39.0332 43.6829 37.608C44.1818 36.1828 44.6093 34.6151 44.6806 32.1922C44.7518 29.9119 44.7518 29.1992 44.7518 23.1421C44.7518 17.0849 44.8944 16.301 44.8231 13.8782ZM40.8325 31.9072C40.7612 34.045 40.3337 35.1852 40.0486 36.0403C39.6211 37.0379 39.1222 37.8218 38.3384 38.5344C37.5545 39.3183 36.8419 39.7458 35.8442 40.2447C35.0604 40.5297 33.9202 40.9573 31.7111 41.0285C29.4308 41.0285 28.7182 41.0285 22.8748 41.0285C17.0314 41.0285 16.2475 41.0285 13.9672 40.9573C11.8293 40.886 10.6892 40.4585 9.83403 40.1734C8.83638 39.7458 8.05251 39.247 7.3399 38.4632C6.55603 37.6793 6.12847 36.9667 5.62964 35.969C5.3446 35.1852 4.91704 34.045 4.84577 31.8359C4.84577 29.6268 4.84577 28.9142 4.84577 22.9995C4.84577 17.0849 4.84577 16.3723 4.91704 14.0919C4.9883 11.9541 5.41586 10.8139 5.7009 9.95882C6.12847 8.96117 6.6273 8.1773 7.3399 7.46469C8.12377 6.68082 8.83638 6.25325 9.83403 5.82569C10.6179 5.54065 11.7581 5.11308 13.9672 5.04182C16.2475 4.97056 16.9601 4.97056 22.8748 4.97056C28.7894 4.97056 29.502 4.97056 31.7824 5.04182C33.9202 5.11308 35.0604 5.54065 35.9155 5.82569C36.9132 6.25325 37.697 6.75208 38.4096 7.46469C39.1935 8.24856 39.6211 8.96117 40.1199 9.95882C40.4049 10.7427 40.8325 11.8829 40.9038 14.0919C40.975 16.3723 40.975 17.0849 40.975 22.9995C40.975 28.9142 40.9038 29.6268 40.8325 31.9072Z" fill="#15CC92"/>
<path d="M22.8046 11.6689C16.4624 11.6689 11.4741 16.7997 11.4741 22.9994C11.4741 29.3416 16.6049 34.3299 22.8046 34.3299C29.0043 34.3299 34.2063 29.3416 34.2063 22.9994C34.2063 16.6572 29.1468 11.6689 22.8046 11.6689ZM22.8046 30.4105C18.6715 30.4105 15.3935 27.0613 15.3935 22.9994C15.3935 18.9376 18.7427 15.5883 22.8046 15.5883C26.9377 15.5883 30.2157 18.8663 30.2157 22.9994C30.2157 27.1325 26.9377 30.4105 22.8046 30.4105Z" fill="#15CC92"/>
<path d="M34.704 13.807C36.1602 13.807 37.3407 12.6265 37.3407 11.1703C37.3407 9.71413 36.1602 8.53369 34.704 8.53369C33.2478 8.53369 32.0674 9.71413 32.0674 11.1703C32.0674 12.6265 33.2478 13.807 34.704 13.807Z" fill="#15CC92"/>
</g>
<defs>
<clipPath id="clip0_29_20">
<rect width="45.6069" height="45.6069" fill="white" transform="translate(0 0.196289)"/>
</clipPath>
</defs>
</svg>
