<svg width="344" height="33" viewBox="0 0 344 33" fill="none" xmlns="http://www.w3.org/2000/svg">
<path d="M55.3638 20.2208C56.5444 22.8243 59.4355 24.8829 63.4619 24.8829C66.9888 24.8829 70.8184 22.9606 70.8184 19.0553C70.8184 15.0743 67.6245 14.0148 63.7949 12.713C60.8887 11.7291 59.2085 11.2448 59.2085 9.42834C59.2085 7.61194 61.0552 6.61292 63.0078 6.61292C65.3691 6.61292 67.0342 8.09631 67.9121 9.68567L70.3794 7.96008C69.229 5.76526 66.8071 3.7218 63.0078 3.7218C59.5869 3.7218 56.0449 5.68958 56.0146 9.44348C55.9844 13.0763 59.0571 14.3781 62.9624 15.6344C65.9897 16.6031 67.6245 17.36 67.6245 19.0856C67.6245 20.8868 65.7778 22.0221 63.4014 22.0221C60.6162 22.0221 58.7241 20.5841 57.7402 18.5709L55.3638 20.2208ZM85.9684 24.8829C92.0685 24.8829 96.5944 20.5387 96.5944 14.3326C96.5944 8.172 92.0685 3.7218 85.9684 3.7218C79.9137 3.7218 75.3576 8.172 75.3576 14.3326C75.3576 20.5387 79.9137 24.8829 85.9684 24.8829ZM78.6876 14.3024C78.6876 9.88245 81.6242 6.73401 85.9684 6.73401C90.3732 6.73401 93.2643 9.88245 93.2643 14.3024C93.2643 18.8282 90.3732 21.8707 85.9684 21.8707C81.6242 21.8707 78.6876 18.8282 78.6876 14.3024ZM102.466 24.5802H105.644V15.5436H114.378V12.6525H105.644V6.91565H116.77V4.02454H102.466V24.5802ZM125.335 4.02454H122.157V24.5802H125.335V4.02454ZM133.401 24.5802L135.036 20.2965H145.42L147.055 24.5802H150.445L141.954 4.02454H138.503L130.011 24.5802H133.401ZM135.99 17.6476L140.228 7.58167L144.466 17.6476H135.99ZM161.87 14.3024C161.87 20.3116 166.547 24.8829 172.511 24.8829C176.28 24.8829 179.61 23.0363 181.548 19.8878L179.171 18.2379C177.567 20.5992 175.236 21.8707 172.511 21.8707C168.273 21.8707 165.2 18.7072 165.2 14.3024C165.2 9.91272 168.212 6.73401 172.435 6.73401C175.145 6.73401 177.355 7.97522 179.005 10.4576L181.472 8.73206C179.489 5.55334 176.174 3.7218 172.435 3.7218C166.487 3.7218 161.87 8.30823 161.87 14.3024ZM190.053 4.02454H186.874V24.5802H190.053V4.02454ZM197.241 24.5802H200.42V15.5436H209.153V12.6525H200.42V6.91565H211.545V4.02454H197.241V24.5802ZM225.348 24.8829C230.615 24.8829 233.976 21.8556 233.976 17.1481V4.02454H230.827V17.0118C230.827 20.024 228.693 21.9313 225.348 21.9313C222.003 21.9313 219.853 20.024 219.853 17.0118V4.02454H216.705V17.1481C216.705 21.8556 220.08 24.8829 225.348 24.8829ZM240.952 24.5802H255.68V21.6891H244.131V15.4679H253.773V12.5768H244.131V6.91565H255.362V4.02454H240.952V24.5802ZM264.7 24.5802V9.06506L277.188 24.5802H280.397V4.02454H277.218V19.691L264.7 4.02454H261.521V24.5802H264.7ZM285.36 7.00647H292.141V24.5802H295.304V7.00647H302.07V4.02454H285.36V7.00647ZM307.018 24.5802H321.746V21.6891H310.197V15.4679H319.839V12.5768H310.197V6.91565H321.429V4.02454H307.018V24.5802ZM326.316 20.2208C327.497 22.8243 330.388 24.8829 334.414 24.8829C337.941 24.8829 341.77 22.9606 341.77 19.0553C341.77 15.0743 338.577 14.0148 334.747 12.713C331.841 11.7291 330.161 11.2448 330.161 9.42834C330.161 7.61194 332.007 6.61292 333.96 6.61292C336.321 6.61292 337.986 8.09631 338.864 9.68567L341.332 7.96008C340.181 5.76526 337.759 3.7218 333.96 3.7218C330.539 3.7218 326.997 5.68958 326.967 9.44348C326.936 13.0763 330.009 14.3781 333.915 15.6344C336.942 16.6031 338.577 17.36 338.577 19.0856C338.577 20.8868 336.73 22.0221 334.353 22.0221C331.568 22.0221 329.676 20.5841 328.692 18.5709L326.316 20.2208Z" fill="white"/>
<path fill-rule="evenodd" clip-rule="evenodd" d="M24.4603 5.67675C21.8409 3.64551 18.5542 2.67196 15.2511 2.94888C13.3951 3.10449 11.61 3.6485 10.0039 4.52799C8.02943 5.72162 7.65775 7.87847 8.17701 9.96409C8.55662 11.4888 10.1049 12.6674 12.3761 13.5169C14.5794 14.3409 17.1105 14.7191 18.8125 14.8738C20.6753 15.0431 22.1373 15.4686 23.3464 16.1165C24.5579 16.7657 25.4561 17.6068 26.2265 18.5226C27.1443 19.6136 27.5915 20.9985 27.7543 22.2275C27.7771 22.3994 27.7948 22.5718 27.8074 22.7436C28.5847 21.398 29.1256 19.9145 29.392 18.3562H31.6166C31.5968 18.5125 31.5485 18.9521 31.5273 19.0619C30.8147 22.7469 28.7838 26.051 25.8087 28.3516C25.4354 28.6403 25.0506 28.9106 24.6556 29.1621C24.6257 29.1846 24.5954 29.2073 24.5647 29.2301L24.5594 29.2229C21.7327 30.9938 18.3949 31.8099 15.0442 31.5244C11.1852 31.1956 7.59042 29.4297 4.97161 26.5763C2.3528 23.723 0.900952 19.9903 0.903568 16.1173C0.906184 12.2444 2.36307 8.51358 4.98573 5.66377C6.12342 4.42755 7.44449 3.39621 8.89079 2.59821C8.9505 2.56275 9.01121 2.52783 9.07293 2.49347L9.07543 2.49796C10.9152 1.51525 12.9508 0.9066 15.065 0.729345C18.9244 0.405779 22.7646 1.54329 25.8252 3.91663C28.7147 6.15734 30.7104 9.34534 31.4693 12.908C31.5142 13.1189 31.5968 13.64 31.5968 13.9169H29.395C28.8409 10.6488 27.0797 7.708 24.4603 5.67675ZM5.74482 8.23426C4.05659 10.5036 3.13282 13.2662 3.13089 16.1188C3.12865 19.4335 4.37123 22.6282 6.61256 25.0703C8.8539 27.5123 11.9306 29.0237 15.2333 29.3051C18.1051 29.5498 20.9658 28.849 23.3872 27.3289C24.2157 26.7004 24.5872 26.3074 24.8054 25.9939C25.0037 25.709 25.1017 25.4635 25.2847 25.0055C25.3237 24.9078 25.3666 24.8004 25.4152 24.6808C25.5649 24.3124 25.6759 23.4981 25.5463 22.5202C25.4194 21.5621 25.0835 20.6239 24.522 19.9564C23.8745 19.1867 23.187 18.5581 22.2944 18.0797C21.3994 17.6001 20.2391 17.24 18.6109 17.092C16.8219 16.9293 14.0668 16.5272 11.5959 15.6031C9.19294 14.7043 6.67905 13.1667 6.01566 10.5022C5.83816 9.78927 5.73579 9.01767 5.74482 8.23426Z" fill="white"/>
<path d="M3.13089 16.1188C3.13282 13.2662 4.05659 10.5036 5.74482 8.23426C5.73579 9.01767 5.83816 9.78927 6.01566 10.5022C6.67905 13.1667 9.19294 14.7043 11.5959 15.6031C14.0668 16.5272 16.8219 16.9293 18.6109 17.092C20.2391 17.24 21.3994 17.6001 22.2944 18.0797C23.187 18.5581 23.8745 19.1867 24.522 19.9564C25.0835 20.6239 25.4194 21.5621 25.5463 22.5202C25.6759 23.4981 25.5649 24.3124 25.4152 24.6808C25.3666 24.8004 25.3237 24.9078 25.2847 25.0055C25.1017 25.4635 25.0037 25.709 24.8054 25.9939C24.5872 26.3074 24.2157 26.7004 23.3872 27.3289C20.9658 28.849 18.1051 29.5498 15.2333 29.3051C11.9306 29.0237 8.8539 27.5123 6.61256 25.0703C4.37123 22.6282 3.12865 19.4335 3.13089 16.1188Z" fill="#F8DC8D"/>
<path d="M31.6166 18.3562H29.392C29.1256 19.9145 28.5847 21.398 27.8074 22.7436C27.7948 22.5718 27.7771 22.3994 27.7543 22.2275C27.5915 20.9985 27.1443 19.6136 26.2265 18.5226C25.4561 17.6068 24.5579 16.7657 23.3464 16.1165C22.1373 15.4686 20.6753 15.0431 18.8125 14.8738C17.1105 14.7191 14.5794 14.3409 12.3761 13.5169C10.1049 12.6674 8.55662 11.4888 8.17701 9.96409C7.65775 7.87847 8.02943 5.72162 10.0039 4.52799C11.61 3.6485 13.3951 3.10449 15.2511 2.94888C18.5542 2.67196 21.8409 3.64551 24.4603 5.67675C27.0797 7.708 28.8409 10.6488 29.395 13.9169H31.5968C31.5968 13.64 31.5142 13.1189 31.4693 12.908C30.7104 9.34534 28.7147 6.15734 25.8252 3.91663C22.7646 1.54329 18.9244 0.405779 15.065 0.729345C12.9508 0.9066 10.9152 1.51525 9.07543 2.49796L9.07293 2.49347C9.01121 2.52783 8.9505 2.56275 8.89079 2.59821C7.44449 3.39621 6.12342 4.42755 4.98573 5.66377C2.36307 8.51358 0.906184 12.2444 0.903568 16.1173C0.900952 19.9903 2.3528 23.723 4.97161 26.5763C7.59042 29.4297 11.1852 31.1956 15.0442 31.5244C18.3949 31.8099 21.7327 30.9938 24.5594 29.2229L24.5647 29.2301C24.5954 29.2073 24.6257 29.1846 24.6556 29.1621C25.0506 28.9106 25.4354 28.6403 25.8087 28.3516C28.7838 26.051 30.8147 22.7469 31.5273 19.0619M31.6166 18.3562C31.5968 18.5125 31.5485 18.9521 31.5273 19.0619M31.6166 18.3562L31.5273 19.0619M3.13089 16.1188C3.13282 13.2662 4.05659 10.5036 5.74482 8.23426C5.73579 9.01767 5.83816 9.78927 6.01566 10.5022C6.67905 13.1667 9.19294 14.7043 11.5959 15.6031C14.0668 16.5272 16.8219 16.9293 18.6109 17.092C20.2391 17.24 21.3994 17.6001 22.2944 18.0797C23.187 18.5581 23.8745 19.1867 24.522 19.9564C25.0835 20.6239 25.4194 21.5621 25.5463 22.5202C25.6759 23.4981 25.5649 24.3124 25.4152 24.6808C25.3666 24.8004 25.3237 24.9078 25.2847 25.0055C25.1017 25.4635 25.0037 25.709 24.8054 25.9939C24.5872 26.3074 24.2157 26.7004 23.3872 27.3289C20.9658 28.849 18.1051 29.5498 15.2333 29.3051C11.9306 29.0237 8.8539 27.5123 6.61256 25.0703C4.37123 22.6282 3.12865 19.4335 3.13089 16.1188Z" stroke="white"/>
</svg>
