<svg width="33" height="33" viewBox="0 0 33 33" fill="none" xmlns="http://www.w3.org/2000/svg">
<path fill-rule="evenodd" clip-rule="evenodd" d="M24.4603 6.04876C21.8409 4.01752 18.5542 3.04397 15.2511 3.32089C13.3951 3.47649 11.61 4.02051 10.0039 4.9C8.02943 6.09363 7.65775 8.25048 8.17701 10.3361C8.55662 11.8608 10.1049 13.0394 12.3761 13.8889C14.5794 14.713 17.1105 15.0911 18.8125 15.2458C20.6753 15.4152 22.1373 15.8406 23.3464 16.4886C24.5579 17.1378 25.4561 17.9788 26.2265 18.8946C27.1443 19.9857 27.5915 21.3705 27.7543 22.5995C27.7771 22.7714 27.7948 22.9438 27.8074 23.1156C28.5847 21.77 29.1256 20.2865 29.392 18.7282H31.6166C31.5968 18.8845 31.5485 19.3241 31.5273 19.4339C30.8147 23.1189 28.7838 26.423 25.8087 28.7236C25.4354 29.0123 25.0506 29.2826 24.6556 29.5341C24.6257 29.5566 24.5954 29.5793 24.5647 29.6021L24.5594 29.5949C21.7327 31.3658 18.3949 32.1819 15.0442 31.8964C11.1852 31.5676 7.59042 29.8017 4.97161 26.9484C2.3528 24.095 0.900952 20.3623 0.903568 16.4893C0.906184 12.6164 2.36307 8.88559 4.98573 6.03578C6.12342 4.79956 7.44449 3.76822 8.89079 2.97022C8.9505 2.93476 9.01121 2.89984 9.07293 2.86548L9.07543 2.86997C10.9152 1.88726 12.9508 1.27861 15.065 1.10135C18.9244 0.777788 22.7646 1.9153 25.8252 4.28864C28.7147 6.52935 30.7104 9.71735 31.4693 13.2801C31.5142 13.4909 31.5968 14.0121 31.5968 14.2889H29.395C28.8409 11.0208 27.0797 8.08001 24.4603 6.04876ZM5.74482 8.60627C4.05659 10.8756 3.13282 13.6382 3.13089 16.4908C3.12865 19.8055 4.37123 23.0002 6.61256 25.4423C8.8539 27.8844 11.9306 29.3957 15.2333 29.6771C18.1051 29.9218 20.9658 29.221 23.3872 27.7009C24.2157 27.0724 24.5872 26.6794 24.8054 26.366C25.0037 26.081 25.1017 25.8355 25.2847 25.3775C25.3237 25.2798 25.3666 25.1724 25.4152 25.0528C25.5649 24.6844 25.6759 23.8701 25.5463 22.8922C25.4194 21.9342 25.0835 20.9959 24.522 20.3284C23.8745 19.5587 23.187 18.9301 22.2944 18.4517C21.3994 17.9721 20.2391 17.612 18.6109 17.464C16.8219 17.3014 14.0668 16.8992 11.5959 15.9751C9.19294 15.0763 6.67905 13.5387 6.01566 10.8742C5.83816 10.1613 5.73579 9.38968 5.74482 8.60627Z" fill="black"/>
<path d="M3.13089 16.4908C3.13282 13.6382 4.05659 10.8756 5.74482 8.60627C5.73579 9.38968 5.83816 10.1613 6.01566 10.8742C6.67905 13.5387 9.19294 15.0763 11.5959 15.9751C14.0668 16.8992 16.8219 17.3014 18.6109 17.464C20.2391 17.612 21.3994 17.9721 22.2944 18.4517C23.187 18.9301 23.8745 19.5587 24.522 20.3284C25.0835 20.9959 25.4194 21.9342 25.5463 22.8922C25.6759 23.8701 25.5649 24.6844 25.4152 25.0528C25.3666 25.1724 25.3237 25.2798 25.2847 25.3775C25.1017 25.8355 25.0037 26.081 24.8054 26.366C24.5872 26.6794 24.2157 27.0724 23.3872 27.7009C20.9658 29.221 18.1051 29.9218 15.2333 29.6771C11.9306 29.3957 8.8539 27.8844 6.61256 25.4423C4.37123 23.0002 3.12865 19.8055 3.13089 16.4908Z" fill="#F8DC8D"/>
<path d="M31.6166 18.7282H29.392C29.1256 20.2865 28.5847 21.77 27.8074 23.1156C27.7948 22.9438 27.7771 22.7714 27.7543 22.5995C27.5915 21.3705 27.1443 19.9857 26.2265 18.8946C25.4561 17.9788 24.5579 17.1378 23.3464 16.4886C22.1373 15.8406 20.6753 15.4152 18.8125 15.2458C17.1105 15.0911 14.5794 14.713 12.3761 13.8889C10.1049 13.0394 8.55662 11.8608 8.17701 10.3361C7.65775 8.25048 8.02943 6.09363 10.0039 4.9C11.61 4.02051 13.3951 3.47649 15.2511 3.32089C18.5542 3.04397 21.8409 4.01752 24.4603 6.04876C27.0797 8.08001 28.8409 11.0208 29.395 14.2889H31.5968C31.5968 14.0121 31.5142 13.4909 31.4693 13.2801C30.7104 9.71735 28.7147 6.52935 25.8252 4.28864C22.7646 1.9153 18.9244 0.777788 15.065 1.10135C12.9508 1.27861 10.9152 1.88726 9.07543 2.86997L9.07293 2.86548C9.01121 2.89984 8.9505 2.93476 8.89079 2.97022C7.44449 3.76822 6.12342 4.79956 4.98573 6.03578C2.36307 8.88559 0.906184 12.6164 0.903568 16.4893C0.900952 20.3623 2.3528 24.095 4.97161 26.9484C7.59042 29.8017 11.1852 31.5676 15.0442 31.8964C18.3949 32.1819 21.7327 31.3658 24.5594 29.5949L24.5647 29.6021C24.5954 29.5793 24.6257 29.5566 24.6556 29.5341C25.0506 29.2826 25.4354 29.0123 25.8087 28.7237C28.7838 26.423 30.8147 23.1189 31.5273 19.4339M31.6166 18.7282C31.5968 18.8845 31.5485 19.3241 31.5273 19.4339M31.6166 18.7282L31.5273 19.4339M3.13089 16.4908C3.13282 13.6382 4.05659 10.8756 5.74482 8.60627C5.73579 9.38968 5.83816 10.1613 6.01566 10.8742C6.67905 13.5387 9.19294 15.0763 11.5959 15.9751C14.0668 16.8992 16.8219 17.3014 18.6109 17.464C20.2391 17.612 21.3994 17.9721 22.2944 18.4517C23.187 18.9301 23.8745 19.5587 24.522 20.3284C25.0835 20.9959 25.4194 21.9342 25.5463 22.8922C25.6759 23.8701 25.5649 24.6844 25.4152 25.0528C25.3666 25.1724 25.3237 25.2798 25.2847 25.3775C25.1017 25.8355 25.0037 26.081 24.8054 26.366C24.5872 26.6794 24.2157 27.0724 23.3872 27.7009C20.9658 29.221 18.1051 29.9218 15.2333 29.6771C11.9306 29.3957 8.8539 27.8844 6.61256 25.4423C4.37123 23.0002 3.12865 19.8055 3.13089 16.4908Z" stroke="black"/>
</svg>
